<svg xmlns="http://www.w3.org/2000/svg" viewBox="0 0 220 52">
  <defs>
    <linearGradient id="ibg" x1="0%" y1="0%" x2="100%" y2="100%">
      <stop offset="0%" stop-color="#6366f1"/>
      <stop offset="100%" stop-color="#7c3aed"/>
    </linearGradient>
    <linearGradient id="txt" x1="0%" y1="0%" x2="100%" y2="0%">
      <stop offset="0%" stop-color="#6366f1"/>
      <stop offset="100%" stop-color="#7c3aed"/>
    </linearGradient>
    <linearGradient id="idot" x1="0%" y1="0%" x2="100%" y2="100%">
      <stop offset="0%" stop-color="#a5b4fc"/>
      <stop offset="100%" stop-color="#c4b5fd"/>
    </linearGradient>
  </defs>
  <!-- Icon bg -->
  <rect x="0" y="4" width="44" height="44" rx="10" fill="url(#ibg)"/>
  <!-- Hub -->
  <circle cx="22" cy="26" r="6" fill="white" opacity="0.95"/>
  <!-- Routes -->
  <line x1="22" y1="20" x2="22" y2="10" stroke="white" stroke-width="2" stroke-linecap="round" opacity="0.88"/>
  <polygon points="22,7 20,12 24,12" fill="white" opacity="0.88"/>
  <line x1="26.2" y1="21.8" x2="34" y2="14" stroke="white" stroke-width="2" stroke-linecap="round" opacity="0.82"/>
  <polygon points="37,11 31,15 35,20" fill="white" opacity="0.82"/>
  <line x1="28" y1="26" x2="40" y2="26" stroke="white" stroke-width="2" stroke-linecap="round" opacity="0.78"/>
  <polygon points="43,26 38,23.5 38,28.5" fill="white" opacity="0.78"/>
  <line x1="26.2" y1="30.2" x2="34" y2="38" stroke="white" stroke-width="2" stroke-linecap="round" opacity="0.72"/>
  <polygon points="37,41 31,37 36,35" fill="white" opacity="0.72"/>
  <line x1="22" y1="32" x2="22" y2="42" stroke="white" stroke-width="2" stroke-linecap="round" opacity="0.78"/>
  <polygon points="22,45 20,40 24,40" fill="white" opacity="0.78"/>
  <line x1="17.8" y1="30.2" x2="10" y2="38" stroke="white" stroke-width="2" stroke-linecap="round" opacity="0.72"/>
  <polygon points="7,41 7,35 12,37" fill="white" opacity="0.72"/>
  <line x1="16" y1="26" x2="4" y2="26" stroke="white" stroke-width="2" stroke-linecap="round" opacity="0.78"/>
  <polygon points="1,26 6,23.5 6,28.5" fill="white" opacity="0.78"/>
  <line x1="17.8" y1="21.8" x2="10" y2="14" stroke="white" stroke-width="2" stroke-linecap="round" opacity="0.82"/>
  <polygon points="7,11 13,15 9,20" fill="white" opacity="0.82"/>
  <circle cx="22" cy="26" r="2.5" fill="url(#idot)"/>
  <!-- Wordmark: Octo (dark for light bg) -->
  <text x="54" y="33" font-family="Inter,system-ui,sans-serif" font-size="20" font-weight="800" fill="#1e1b4b" letter-spacing="-0.5">Octo</text>
  <!-- Wordmark: matic (gradient) -->
  <text x="97" y="33" font-family="Inter,system-ui,sans-serif" font-size="20" font-weight="800" fill="url(#txt)" letter-spacing="-0.5">matic</text>
</svg>
